<mxfile host="app.diagrams.net" modified="2024-04-19T18:51:09.564Z" agent="Mozilla/5.0 (Windows NT 10.0; Win64; x64) AppleWebKit/537.36 (KHTML, like Gecko) Chrome/123.0.0.0 Safari/537.36 Edg/123.0.0.0" version="24.2.7" etag="AaiVckiVmCGrm4x7tZkK" type="github">
  <diagram name="Page-1" id="NfocHUYJrqvPFP429sXq">
    <mxGraphModel>
      <root>
        <mxCell id="0" />
        <mxCell id="1" parent="0" />
      </root>
    </mxGraphModel>
  </diagram>
</mxfile>
